<svg width="50" height="50" viewBox="0 0 50 50" fill="none" xmlns="http://www.w3.org/2000/svg">
<path fill-rule="evenodd" clip-rule="evenodd" d="M25 0C11.1929 0 0 11.1929 0 25C0 38.8071 11.1929 50 25 50C38.8071 50 50 38.8071 50 25C50 11.1929 38.8071 0 25 0ZM17.4872 12.5C17.5612 12.5587 17.6199 12.5587 17.6786 12.551C17.9822 12.5255 18.2424 12.5995 18.4107 12.8776C18.4405 12.9258 18.4703 12.9741 18.5 13.0223C18.8481 13.5864 19.1967 14.1515 19.5281 14.7296C19.768 15.1476 19.9969 15.5724 20.2259 15.9976C20.3939 16.3094 20.5621 16.6214 20.7347 16.9312C20.8016 17.0567 20.8851 17.175 20.9687 17.2933C21.0158 17.3601 21.063 17.4269 21.1072 17.495C21.2137 17.6645 21.3157 17.8385 21.4152 18.0085L21.4312 18.0358C21.6455 18.4414 21.6353 18.8496 21.3164 19.1736C20.9807 19.5168 20.6199 19.8419 20.2598 20.1664C20.1328 20.2809 20.0059 20.3953 19.8801 20.5103C19.7238 20.6538 19.5652 20.7949 19.4067 20.936C19.1564 21.1587 18.9063 21.3813 18.6658 21.6124C18.3597 21.9083 18.2806 22.2782 18.4873 22.6685C18.5064 22.7044 18.5255 22.7402 18.5447 22.776C18.8442 23.3371 19.1435 23.8975 19.472 24.4466C20.7679 26.6074 22.4236 28.4441 24.5154 29.86C25.3216 30.4085 26.1609 30.911 27.0078 31.3906C27.8063 31.8422 28.1175 31.7656 28.7374 31.0743C29.0648 30.7107 29.3857 30.3437 29.7069 29.9763C29.9514 29.6968 30.1961 29.4169 30.4441 29.138C30.5819 28.9824 30.7477 28.8447 30.9084 28.712C31.2349 28.4365 31.5921 28.4059 31.9671 28.5947C31.9906 28.6061 32.0145 28.6173 32.0384 28.6286C32.1211 28.6674 32.2046 28.7065 32.2758 28.7579C32.941 29.2338 33.6587 29.6162 34.3754 29.9981C34.7307 30.1873 35.0857 30.3765 35.434 30.5768C35.793 30.7832 36.1459 30.9988 36.4978 31.2139C36.6985 31.3365 36.8988 31.459 37.0998 31.5794C37.3983 31.7554 37.5182 32.0131 37.4978 32.3677C37.4417 33.3652 37.2758 34.3448 36.6968 35.1866C36.4544 35.5361 36.11 35.8422 35.7631 36.0897C34.8013 36.7632 33.7273 37.179 32.5844 37.4341C31.5462 37.6662 30.5104 37.5821 29.5155 37.2708C27.5946 36.679 25.7017 36.0004 23.9593 34.9723C22.3776 34.0361 20.9388 32.906 19.6072 31.6432C17.9209 30.0386 16.4158 28.2885 15.1989 26.2962C14.4056 25.0028 13.8392 23.6099 13.3265 22.1889C13.0152 21.3318 12.7091 20.4823 12.5713 19.5741C12.4132 18.546 12.5229 17.5562 12.852 16.5817C13.1479 15.7016 13.5178 14.8597 14.0765 14.1072C14.5153 13.523 15.0637 13.0944 15.7729 12.9031C16.1737 12.797 16.5769 12.7062 16.98 12.6154C17.1492 12.5773 17.3183 12.5392 17.4872 12.5Z" fill="#7C4FE0"/>
</svg>
