<svg width="21" height="24" viewBox="0 0 21 24" fill="none" xmlns="http://www.w3.org/2000/svg">
<path d="M18.14 10.29L4 1.82002C3.69758 1.64539 3.3547 1.55299 3.00548 1.55201C2.65626 1.55103 2.31287 1.64151 2.00948 1.81445C1.70608 1.98738 1.45325 2.23675 1.27615 2.53773C1.09905 2.83871 1.00384 3.18082 1 3.53002L0.999999 20.47C1.00384 20.8192 1.09905 21.1613 1.27615 21.4623C1.45325 21.7633 1.70608 22.0127 2.00947 22.1856C2.31287 22.3585 2.65626 22.449 3.00548 22.448C3.3547 22.4471 3.69758 22.3547 4 22.18L18.14 13.71C18.4339 13.5318 18.6769 13.2807 18.8455 12.9812C19.0142 12.6817 19.1027 12.3438 19.1027 12C19.1027 11.6563 19.0142 11.3184 18.8455 11.0188C18.6769 10.7193 18.4339 10.4683 18.14 10.29V10.29Z" stroke="#575759" stroke-width="2" stroke-linecap="round" stroke-linejoin="round"/>
</svg>
